<svg id="Layer_1" data-name="Layer 1" xmlns="http://www.w3.org/2000/svg" viewBox="0 0 173.28 45.62"><defs><style>.cls-1{fill:#fff;}</style></defs><path class="cls-1" d="M34,6.75V37H28.14V16.58L25.81,37H21.66l-2.45-20V37H13.36V6.75H22c.26,1.82.52,4,.79,6.43l.95,7.7L25.29,6.75Z" transform="translate(-13.36 -6.12)"/><path class="cls-1" d="M50.43,20.92V27a30.36,30.36,0,0,1-.28,4.91,7.45,7.45,0,0,1-1.22,2.91,5.66,5.66,0,0,1-2.4,2,8.3,8.3,0,0,1-3.37.65,10.23,10.23,0,0,1-3.6-.56,4.86,4.86,0,0,1-2.29-1.66,7.09,7.09,0,0,1-1.16-2.69,23.15,23.15,0,0,1-.35-4.74V21.46a18.23,18.23,0,0,1,.63-5.4,6,6,0,0,1,2.28-3.12,7.06,7.06,0,0,1,4.22-1.18,8.25,8.25,0,0,1,3.7.76,6,6,0,0,1,2.38,2A7.31,7.31,0,0,1,50.12,17,18,18,0,0,1,50.43,20.92ZM44,19.05a10.07,10.07,0,0,0-.17-2.4.72.72,0,0,0-.75-.5.74.74,0,0,0-.76.5,8.74,8.74,0,0,0-.19,2.4V30.24a8.34,8.34,0,0,0,.19,2.29.73.73,0,0,0,.75.53.72.72,0,0,0,.75-.48A7.51,7.51,0,0,0,44,30.49Z" transform="translate(-13.36 -6.12)"/><path class="cls-1" d="M58.35,12.21l-.26,3.26q1.41-3.49,4-3.71v8.73a4.62,4.62,0,0,0-2.58.56,2.31,2.31,0,0,0-1,1.56,32.46,32.46,0,0,0-.19,4.61V37H51.94V12.21Z" transform="translate(-13.36 -6.12)"/><path class="cls-1" d="M77.56,12.21v19.1c0,2.58,0,4.24-.14,5a5.38,5.38,0,0,1-1.07,2.39,5.66,5.66,0,0,1-2.54,1.92,10.82,10.82,0,0,1-4.1.67,8.68,8.68,0,0,1-4.89-1.23c-1.22-.81-1.86-2.42-1.9-4.81h6.17c0,1.1.34,1.65,1,1.65a1,1,0,0,0,1-.51,5.89,5.89,0,0,0,.24-2.11V32.41a6.18,6.18,0,0,1-1.73,1.33,4.18,4.18,0,0,1-1.9.45,4.6,4.6,0,0,1-2.82-.83,4.05,4.05,0,0,1-1.52-2.15,13.83,13.83,0,0,1-.41-3.81v-9A9.25,9.25,0,0,1,64,13.31a3.7,3.7,0,0,1,3.26-1.55,4.19,4.19,0,0,1,2.18.58,5.59,5.59,0,0,1,1.76,1.74l.45-1.87Zm-6.37,6.58A8.37,8.37,0,0,0,71,16.62a.69.69,0,0,0-.73-.47.79.79,0,0,0-.78.53,6.38,6.38,0,0,0-.23,2.11v8.33a8.55,8.55,0,0,0,.17,2.16.71.71,0,0,0,.73.5.79.79,0,0,0,.82-.6,12,12,0,0,0,.19-2.71Z" transform="translate(-13.36 -6.12)"/><path class="cls-1" d="M85,21.81H79V20.15a13.5,13.5,0,0,1,.57-4.44A5.78,5.78,0,0,1,81.82,13a7.45,7.45,0,0,1,4.4-1.2,7.54,7.54,0,0,1,4.9,1.36,5.4,5.4,0,0,1,2,3.32,61.92,61.92,0,0,1,.33,8.12V37H87.21V34.8a4.71,4.71,0,0,1-1.52,2,3.69,3.69,0,0,1-2.21.67,4.79,4.79,0,0,1-3.08-1.12Q79,35.23,79,31.48v-2a6.75,6.75,0,0,1,.75-3.79,10.19,10.19,0,0,1,3.69-2.36c2.11-1,3.23-1.62,3.38-2A6.06,6.06,0,0,0,87,19.27a8.27,8.27,0,0,0-.24-2.53.86.86,0,0,0-.82-.59.75.75,0,0,0-.81.5A12.13,12.13,0,0,0,85,19.22Zm2,3.41a5.33,5.33,0,0,0-1.78,2.22A10.51,10.51,0,0,0,85,30a8.76,8.76,0,0,0,.22,2.48.81.81,0,0,0,.85.56.75.75,0,0,0,.78-.43A8.49,8.49,0,0,0,87,30.32Z" transform="translate(-13.36 -6.12)"/><path class="cls-1" d="M101.63,12.21l-.11,2.28a5.33,5.33,0,0,1,1.7-2.05,4.06,4.06,0,0,1,2.32-.68,4,4,0,0,1,2.69.92,4.18,4.18,0,0,1,1.34,2.3,25,25,0,0,1,.3,4.65V37h-6.39V19.83a19.67,19.67,0,0,0-.14-3.12.73.73,0,0,0-.8-.56.81.81,0,0,0-.85.65,18.88,18.88,0,0,0-.17,3.45V37h-6.4V12.21Z" transform="translate(-13.36 -6.12)"/><path class="cls-1" d="M127.37,19.93h-6.66V14.67a11.21,11.21,0,0,0-.21-2.86.9.9,0,0,0-.94-.57,1,1,0,0,0-1,.69,12.27,12.27,0,0,0-.22,3V29a11.45,11.45,0,0,0,.22,2.88.94.94,0,0,0,1,.67.93.93,0,0,0,1-.67,12.6,12.6,0,0,0,.23-3.17v-3.8h6.66v1.18a27.53,27.53,0,0,1-.56,6.66,6.6,6.6,0,0,1-2.48,3.44,7.53,7.53,0,0,1-4.74,1.48,8.58,8.58,0,0,1-4.83-1.25,5.92,5.92,0,0,1-2.51-3.47,26.63,26.63,0,0,1-.62-6.66V17.42a45.32,45.32,0,0,1,.19-4.9A7.59,7.59,0,0,1,113,9.37,6.61,6.61,0,0,1,115.56,7a8.17,8.17,0,0,1,3.84-.87,8.32,8.32,0,0,1,4.86,1.34,6.26,6.26,0,0,1,2.51,3.35,23.66,23.66,0,0,1,.6,6.24Z" transform="translate(-13.36 -6.12)"/><path class="cls-1" d="M134.75,21.81h-6V20.15a13.81,13.81,0,0,1,.56-4.44A5.87,5.87,0,0,1,131.55,13a9.15,9.15,0,0,1,9.33.16,5.35,5.35,0,0,1,2,3.32,61.92,61.92,0,0,1,.33,8.12V37H137V34.8a4.7,4.7,0,0,1-1.51,2,3.74,3.74,0,0,1-2.22.67,4.84,4.84,0,0,1-3.09-1.12q-1.41-1.11-1.41-4.86v-2a6.75,6.75,0,0,1,.75-3.79,10.17,10.17,0,0,1,3.7-2.36c2.11-1,3.24-1.62,3.39-2a6.06,6.06,0,0,0,.22-2.06,7.85,7.85,0,0,0-.25-2.53.84.84,0,0,0-.82-.59.75.75,0,0,0-.81.5,12.42,12.42,0,0,0-.15,2.57Zm2,3.41A5.37,5.37,0,0,0,135,27.44a10.6,10.6,0,0,0-.24,2.58A8.9,8.9,0,0,0,135,32.5a.82.82,0,0,0,.85.56.76.76,0,0,0,.79-.43,8.49,8.49,0,0,0,.18-2.31Z" transform="translate(-13.36 -6.12)"/><path class="cls-1" d="M151.19,12.21l-.25,3.26c.92-2.33,2.23-3.57,4-3.71v8.73a4.45,4.45,0,0,0-2.53.56,2.3,2.3,0,0,0-1,1.56,34.15,34.15,0,0,0-.19,4.61V37h-6.27V12.21Z" transform="translate(-13.36 -6.12)"/><path class="cls-1" d="M170.4,12.21v19.1a50,50,0,0,1-.15,5,5.35,5.35,0,0,1-1.06,2.39,5.69,5.69,0,0,1-2.55,1.92,10.84,10.84,0,0,1-4.11.67,8.67,8.67,0,0,1-4.88-1.23c-1.23-.81-1.87-2.42-1.91-4.81h6.18c0,1.1.34,1.65,1,1.65a1,1,0,0,0,1-.51,5.89,5.89,0,0,0,.24-2.11V32.41a6.32,6.32,0,0,1-1.73,1.33,4.21,4.21,0,0,1-1.9.45,4.61,4.61,0,0,1-2.83-.83,4.05,4.05,0,0,1-1.52-2.15,13.45,13.45,0,0,1-.41-3.81v-9c0-2.35.35-4,1.07-5.08a3.7,3.7,0,0,1,3.26-1.55,4.22,4.22,0,0,1,2.19.58A5.7,5.7,0,0,1,164,14.08l.45-1.87ZM164,18.79a8.37,8.37,0,0,0-.17-2.17.69.69,0,0,0-.73-.47.79.79,0,0,0-.78.53,6.11,6.11,0,0,0-.23,2.11v8.33a8.55,8.55,0,0,0,.17,2.16.71.71,0,0,0,.73.5.79.79,0,0,0,.82-.6,12,12,0,0,0,.19-2.71Z" transform="translate(-13.36 -6.12)"/><path class="cls-1" d="M186.64,20.92V27a30.36,30.36,0,0,1-.28,4.91,7.45,7.45,0,0,1-1.22,2.91,5.57,5.57,0,0,1-2.39,2,8.29,8.29,0,0,1-3.36.65,10.21,10.21,0,0,1-3.59-.56,4.78,4.78,0,0,1-2.28-1.66,7.09,7.09,0,0,1-1.16-2.69,23.89,23.89,0,0,1-.35-4.74V21.46a18.23,18.23,0,0,1,.63-5.4,6,6,0,0,1,2.28-3.12,7,7,0,0,1,4.2-1.18,8.24,8.24,0,0,1,3.69.76,6,6,0,0,1,2.38,2,7.28,7.28,0,0,1,1.14,2.5A18,18,0,0,1,186.64,20.92Zm-6.38-1.87a10.07,10.07,0,0,0-.17-2.4.72.72,0,0,0-.75-.5.74.74,0,0,0-.76.5,9.18,9.18,0,0,0-.19,2.4V30.24a8.78,8.78,0,0,0,.19,2.29.73.73,0,0,0,.75.53.72.72,0,0,0,.75-.48,7.51,7.51,0,0,0,.18-2.09Z" transform="translate(-13.36 -6.12)"/><path class="cls-1" d="M21,51.62,23.2,44.7H24l2.33,6.92h-.86l-.66-2.09H22.42l-.62,2.09Zm1.63-2.84h1.93L24,46.87c-.18-.59-.31-1.07-.4-1.44a9,9,0,0,1-.31,1.32Z" transform="translate(-13.36 -6.12)"/><path class="cls-1" d="M28,51.62V44.7h.75v6.92Z" transform="translate(-13.36 -6.12)"/><path class="cls-1" d="M31,51.62V44.7h2.51a2.59,2.59,0,0,1,1.16.2,1.48,1.48,0,0,1,.62.64,2.2,2.2,0,0,1,.24,1.05,1.76,1.76,0,0,1-1.59,1.88,2,2,0,0,1,.48.39,5,5,0,0,1,.59.88l1,1.88h-1l-.75-1.44a9.16,9.16,0,0,0-.67-1.13,1.3,1.3,0,0,0-.43-.4,1.36,1.36,0,0,0-.59-.1h-.86v3.07Zm.75-3.86h1.61a1.87,1.87,0,0,0,.8-.13,1,1,0,0,0,.44-.4,1.32,1.32,0,0,0,.16-.64,1.11,1.11,0,0,0-.31-.82,1.25,1.25,0,0,0-.91-.3H31.75Z" transform="translate(-13.36 -6.12)"/><path class="cls-1" d="M39.74,51.62l2.19-6.92h.8l2.33,6.92H44.2l-.66-2.09H41.15l-.62,2.09Zm1.63-2.84H43.3l-.59-1.91c-.18-.59-.31-1.07-.4-1.44A9,9,0,0,1,42,46.75Z" transform="translate(-13.36 -6.12)"/><path class="cls-1" d="M46.56,51.62V44.7h.77l3,5.45V44.7H51v6.92h-.77l-3-5.44v5.44Z" transform="translate(-13.36 -6.12)"/><path class="cls-1" d="M53.23,51.62V44.7h2a3.81,3.81,0,0,1,1.11.13,1.83,1.83,0,0,1,.86.61,3.08,3.08,0,0,1,.56,1.1,5.37,5.37,0,0,1,.21,1.59,5.13,5.13,0,0,1-.35,2,2.42,2.42,0,0,1-.88,1.16,2.6,2.6,0,0,1-1.42.34Zm.75-.81h1.2a2.08,2.08,0,0,0,1.11-.24,1.46,1.46,0,0,0,.58-.77,4.7,4.7,0,0,0,.27-1.68,3.94,3.94,0,0,0-.28-1.66,1.54,1.54,0,0,0-.74-.8,2.46,2.46,0,0,0-.95-.14H54Z" transform="translate(-13.36 -6.12)"/><path class="cls-1" d="M62.79,49.4l.71-.08a2,2,0,0,0,.25.89,1.52,1.52,0,0,0,.58.51,1.79,1.79,0,0,0,.84.19,1.52,1.52,0,0,0,1-.32,1.07,1.07,0,0,0,.37-.85,1.06,1.06,0,0,0-.14-.54,1,1,0,0,0-.4-.37,6.6,6.6,0,0,0-1.17-.41,4.23,4.23,0,0,1-1.15-.48,1.83,1.83,0,0,1-.53-.61,1.92,1.92,0,0,1-.18-.84,1.87,1.87,0,0,1,.54-1.38A2,2,0,0,1,65,44.58a2.45,2.45,0,0,1,1.11.25,1.81,1.81,0,0,1,.73.72,2.39,2.39,0,0,1,.29,1.1l-.73.06a1.46,1.46,0,0,0-.4-1,1.4,1.4,0,0,0-1-.32,1.49,1.49,0,0,0-1,.28.94.94,0,0,0-.33.74.85.85,0,0,0,.24.65,3,3,0,0,0,1.11.47,8.5,8.5,0,0,1,1.18.4,2,2,0,0,1,.78.7,1.91,1.91,0,0,1,.27,1A2.17,2.17,0,0,1,67,50.74a1.89,1.89,0,0,1-.76.75,2.41,2.41,0,0,1-1.15.25,2.25,2.25,0,0,1-1.68-.63A2.36,2.36,0,0,1,62.79,49.4Z" transform="translate(-13.36 -6.12)"/><path class="cls-1" d="M69.28,51.62V44.7h4.1v.82H70v2.11h3.14v.82H70v2.36h3.49v.81Z" transform="translate(-13.36 -6.12)"/><path class="cls-1" d="M74.87,51.62l2.19-6.92h.8l2.32,6.92h-.86l-.66-2.09H76.28l-.62,2.09Zm1.63-2.84h1.93l-.59-1.91c-.18-.59-.32-1.07-.4-1.44a12.6,12.6,0,0,1-.31,1.32Z" transform="translate(-13.36 -6.12)"/><path class="cls-1" d="M84.47,51.62V44.7H88.3v.82H85.22v2.14h2.66v.82H85.22v3.14Z" transform="translate(-13.36 -6.12)"/><path class="cls-1" d="M90.2,51.62V44.7h2.51a2.59,2.59,0,0,1,1.16.2,1.48,1.48,0,0,1,.62.64,2.2,2.2,0,0,1,.24,1.05,1.76,1.76,0,0,1-1.59,1.88,2,2,0,0,1,.48.39,5,5,0,0,1,.59.88l1,1.88h-1l-.75-1.44a9.16,9.16,0,0,0-.67-1.13,1.3,1.3,0,0,0-.43-.4,1.36,1.36,0,0,0-.59-.1H91v3.07ZM91,47.76h1.61a1.87,1.87,0,0,0,.8-.13,1,1,0,0,0,.44-.4,1.32,1.32,0,0,0,.16-.64,1.11,1.11,0,0,0-.31-.82,1.25,1.25,0,0,0-.91-.3H91Z" transform="translate(-13.36 -6.12)"/><path class="cls-1" d="M96.87,51.62V44.7H101v.82H97.62v2.11h3.14v.82H97.62v2.36h3.49v.81Z" transform="translate(-13.36 -6.12)"/><path class="cls-1" d="M103.22,51.62V44.7H104v6.92Z" transform="translate(-13.36 -6.12)"/><path class="cls-1" d="M108.89,48.91v-.82h2.41v2.57a4,4,0,0,1-1.15.81,2.85,2.85,0,0,1-1.21.27,2.67,2.67,0,0,1-1.48-.42,2.74,2.74,0,0,1-1-1.21,4.33,4.33,0,0,1-.38-1.92,4.65,4.65,0,0,1,.38-2,2.81,2.81,0,0,1,1-1.24,2.6,2.6,0,0,1,1.46-.4,2.47,2.47,0,0,1,1.09.23,2.14,2.14,0,0,1,.77.66,3.22,3.22,0,0,1,.46,1.16l-.68.23a2.61,2.61,0,0,0-.34-.87,1.38,1.38,0,0,0-.55-.46,1.74,1.74,0,0,0-.77-.17,1.86,1.86,0,0,0-1.06.3,2.08,2.08,0,0,0-.72.94,3.9,3.9,0,0,0-.27,1.54,3.21,3.21,0,0,0,.58,2.08,1.88,1.88,0,0,0,1.51.69,2.19,2.19,0,0,0,.91-.21,2.34,2.34,0,0,0,.74-.5V48.91Z" transform="translate(-13.36 -6.12)"/><path class="cls-1" d="M113.32,51.62V44.7h.75v2.85h3V44.7h.75v6.92H117V48.36h-3v3.26Z" transform="translate(-13.36 -6.12)"/><path class="cls-1" d="M121.44,51.62v-6.1h-1.87V44.7h4.5v.82h-1.88v6.1Z" transform="translate(-13.36 -6.12)"/><path class="cls-1" d="M128.72,51.62V44.7h.75v6.11h2.8v.81Z" transform="translate(-13.36 -6.12)"/><path class="cls-1" d="M133.9,48.25a4.2,4.2,0,0,1,.78-2.72,2.43,2.43,0,0,1,1.94-1A2.32,2.32,0,0,1,138,45a2.84,2.84,0,0,1,1,1.23,4.72,4.72,0,0,1,.36,1.93,4.13,4.13,0,0,1-.7,2.5,2.42,2.42,0,0,1-4,0A4,4,0,0,1,133.9,48.25Zm.78,0a3.08,3.08,0,0,0,.56,2,1.69,1.69,0,0,0,2.76,0,3.34,3.34,0,0,0,.56-2.09,4.23,4.23,0,0,0-.29-1.6,1.92,1.92,0,0,0-.67-.86,1.6,1.6,0,0,0-1-.33,1.69,1.69,0,0,0-1.4.71A3.57,3.57,0,0,0,134.68,48.26Z" transform="translate(-13.36 -6.12)"/><path class="cls-1" d="M143.89,48.91v-.82h2.4v2.57a4,4,0,0,1-1.14.81,2.88,2.88,0,0,1-1.21.27,2.64,2.64,0,0,1-1.48-.42,2.74,2.74,0,0,1-1-1.21,4.33,4.33,0,0,1-.38-1.92,4.65,4.65,0,0,1,.38-2,2.81,2.81,0,0,1,1-1.24,2.6,2.6,0,0,1,1.46-.4,2.47,2.47,0,0,1,1.09.23,2.14,2.14,0,0,1,.77.66,3.05,3.05,0,0,1,.45,1.16l-.67.23a2.4,2.4,0,0,0-.35-.87,1.35,1.35,0,0,0-.54-.46,1.74,1.74,0,0,0-.77-.17,1.86,1.86,0,0,0-1.06.3,2.08,2.08,0,0,0-.72.94,3.9,3.9,0,0,0-.27,1.54,3.15,3.15,0,0,0,.58,2.08,1.88,1.88,0,0,0,1.51.69,2.19,2.19,0,0,0,.91-.21,2.46,2.46,0,0,0,.74-.5V48.91Z" transform="translate(-13.36 -6.12)"/><path class="cls-1" d="M148.47,51.62V44.7h.75v6.92Z" transform="translate(-13.36 -6.12)"/><path class="cls-1" d="M151.21,49.4l.71-.08a2,2,0,0,0,.26.89,1.42,1.42,0,0,0,.57.51,1.79,1.79,0,0,0,.84.19,1.51,1.51,0,0,0,1-.32,1.07,1.07,0,0,0,.37-.85.94.94,0,0,0-.54-.91,6.6,6.6,0,0,0-1.17-.41,4,4,0,0,1-1.14-.48,1.63,1.63,0,0,1-.53-.61,1.79,1.79,0,0,1-.19-.84,1.87,1.87,0,0,1,.54-1.38,2,2,0,0,1,1.47-.53,2.38,2.38,0,0,1,1.1.25,1.83,1.83,0,0,1,.74.72,2.39,2.39,0,0,1,.28,1.1l-.72.06a1.52,1.52,0,0,0-.41-1,1.38,1.38,0,0,0-1-.32,1.44,1.44,0,0,0-1,.28.91.91,0,0,0-.34.74.82.82,0,0,0,.25.65,2.83,2.83,0,0,0,1.1.47,8.5,8.5,0,0,1,1.18.4,1.85,1.85,0,0,1,.78.7,1.91,1.91,0,0,1,.27,1,2.07,2.07,0,0,1-.28,1.08,1.89,1.89,0,0,1-.76.75,2.41,2.41,0,0,1-1.15.25,2.27,2.27,0,0,1-1.68-.63A2.4,2.4,0,0,1,151.21,49.4Z" transform="translate(-13.36 -6.12)"/><path class="cls-1" d="M159.14,51.62v-6.1h-1.86V44.7h4.49v.82h-1.88v6.1Z" transform="translate(-13.36 -6.12)"/><path class="cls-1" d="M163.61,51.62V44.7h.75v6.92Z" transform="translate(-13.36 -6.12)"/><path class="cls-1" d="M170.64,49.2l.75.23a3.22,3.22,0,0,1-.87,1.74,2.2,2.2,0,0,1-1.53.57,2.35,2.35,0,0,1-1.34-.38,2.71,2.71,0,0,1-.92-1.24,5.13,5.13,0,0,1-.35-2,4.66,4.66,0,0,1,.35-1.93,2.73,2.73,0,0,1,1-1.2,2.46,2.46,0,0,1,1.36-.4,2.07,2.07,0,0,1,1.41.51,2.8,2.8,0,0,1,.83,1.5l-.74.21c-.25-1-.76-1.44-1.52-1.44a1.65,1.65,0,0,0-1,.3,1.86,1.86,0,0,0-.66.9,4.09,4.09,0,0,0-.25,1.55,3.78,3.78,0,0,0,.5,2.14A1.56,1.56,0,0,0,169,51a1.47,1.47,0,0,0,1.06-.44A2.32,2.32,0,0,0,170.64,49.2Z" transform="translate(-13.36 -6.12)"/><path class="cls-1" d="M173,49.4l.71-.08a2.14,2.14,0,0,0,.26.89,1.42,1.42,0,0,0,.57.51,1.79,1.79,0,0,0,.84.19,1.49,1.49,0,0,0,1-.32,1.07,1.07,0,0,0,.37-.85.94.94,0,0,0-.54-.91,6.6,6.6,0,0,0-1.17-.41,4.14,4.14,0,0,1-1.14-.48,1.73,1.73,0,0,1-.53-.61,1.79,1.79,0,0,1-.19-.84,1.87,1.87,0,0,1,.54-1.38,2,2,0,0,1,1.47-.53,2.38,2.38,0,0,1,1.1.25,1.83,1.83,0,0,1,.74.72,2.39,2.39,0,0,1,.28,1.1l-.72.06a1.47,1.47,0,0,0-.41-1,1.38,1.38,0,0,0-1-.32,1.46,1.46,0,0,0-1,.28.91.91,0,0,0-.34.74.82.82,0,0,0,.25.65,2.83,2.83,0,0,0,1.1.47,8.5,8.5,0,0,1,1.18.4,1.94,1.94,0,0,1,.79.7,2,2,0,0,1,.26,1,2.07,2.07,0,0,1-.28,1.08,1.83,1.83,0,0,1-.76.75,2.41,2.41,0,0,1-1.15.25,2.27,2.27,0,0,1-1.68-.63A2.45,2.45,0,0,1,173,49.4Z" transform="translate(-13.36 -6.12)"/><rect class="cls-1" x="2.8" y="33.71" width="45.98" height="0.88"/><rect class="cls-1" x="65.64" y="33.71" width="75.46" height="0.88"/><rect class="cls-1" x="158.65" y="33.71" width="10.21" height="0.88"/></svg>